<svg width="89.561" height="89.563" version="1.1" viewBox="0 0 29.854 29.854" xml:space="preserve" xmlns="http://www.w3.org/2000/svg"><rect transform="rotate(1.9749)" x=".86518" y="1.2221" width="27.797" height="27.797" rx="4" ry="4" stroke-dasharray="1.58485" stroke-width=".13207"/><path d="m21.146 14.484a1.3738 1.3738 0 0 0-0.98438 0.36914l-7.1016 6.6289a1.3738 1.3738 0 0 0-0.06836 1.9414 1.3738 1.3738 0 0 0 1.9434 0.06641l7.1016-6.6289a1.3738 1.3738 0 0 0 0.06641-1.9414 1.3738 1.3738 0 0 0-0.95703-0.43555z" fill="#fff" stroke-linecap="round" stroke-linejoin="round"/><path d="m20.033 6.8846a1.3738 1.3738 0 0 0-0.98438 0.36914l-13.494 12.594a1.3738 1.3738 0 0 0-0.066406 1.9414 1.3738 1.3738 0 0 0 1.9414 0.06836l13.494-12.594a1.3738 1.3738 0 0 0 0.06641-1.9434 1.3738 1.3738 0 0 0-0.95703-0.43555z" fill="#fff" stroke-linecap="round" stroke-linejoin="round"/><path d="m6.1422 0.0024815c-2.2501-0.07759-4.1246 1.6738-4.2022 3.9239l-0.68225 19.785c-0.07759 2.2501 1.6718 4.1265 3.9219 4.2041l19.787 0.68231c2.2501 0.07759 4.1246-1.6738 4.2022-3.9239l0.68224-19.785c0.07759-2.2501-1.6718-4.1265-3.9219-4.2041zm-0.00451 0.13078 19.787 0.68231c2.1793 0.075147 3.8708 1.8895 3.7956 4.0688l-0.68225 19.785c-0.07515 2.1793-1.8876 3.8708-4.0668 3.7957l-19.787-0.68231c-2.1793-0.075147-3.8708-1.8876-3.7957-4.0668l0.68224-19.785c0.075147-2.1793 1.8876-3.8728 4.0669-3.7976z"/></svg>
