<svg width="130.83" height="133.46" version="1.1" viewBox="0 0 43.611 44.488" xml:space="preserve" xmlns="http://www.w3.org/2000/svg"><rect transform="rotate(9.0561)" x="5.2904" y="-1.4292" width="38.298" height="38.298" rx="4" ry="4"/><path d="m28.671 28.283c-0.19545 2.4271-0.37457 3.5509-0.5701 4.7776l-5.5468-0.8841c0.04259-0.2672 0.08633-0.51086 0.13066-0.75795 0.13781-0.7681 0.28154-1.5691 0.41531-3.2116 0.21364-2.4018-0.72517-3.0927-2.6061-3.3925l-8.724-1.3905 0.68888-4.322 8.988 1.4326c2.3759 0.37868 3.679-0.15473 3.984-2.0683 0.26819-1.6826-0.75726-2.8916-3.1331-3.2703l-8.988-1.4326 0.67409-4.2293 9.9779 1.5904c5.3787 0.8573 7.6467 3.8238 6.9999 7.8819-0.48379 3.0353-2.6802 4.7151-5.2737 4.64 2.0765 0.77076 3.1359 2.1914 2.983 4.6366z" clip-rule="evenodd" fill="#fff" fill-rule="evenodd" stroke-width=".43847"/><path d="m10.677 30.283 0.51354-3.2219 5.865 0.9348c0.97965 0.15614 1.0766 0.91663 1.0075 1.35l-0.32866 2.062z" fill="#fff" stroke-width=".43847"/><path d="m10.283 1.7615c-2.2116-0.35251-4.2764 1.1446-4.6289 3.3562l-4.7691 29.921c-0.35251 2.2116 1.1446 4.2764 3.3562 4.6289l29.921 4.7691c2.2116 0.3525 4.2764-1.1446 4.6289-3.3562l4.7691-29.921c0.3525-2.2116-1.1446-4.2764-3.3562-4.6289zm-0.01383 0.086795 29.921 4.7691c2.1651 0.3451 3.6283 2.3632 3.2832 4.5283l-4.7691 29.921c-0.3451 2.1651-2.3632 3.6283-4.5283 3.2832l-29.921-4.7691c-2.1651-0.3451-3.6283-2.3632-3.2832-4.5283l4.7691-29.921c0.3451-2.1651 2.3632-3.6283 4.5283-3.2832z"/></svg>
