<svg width="116.26" height="118.89" version="1.1" viewBox="0 0 38.754 39.632" xml:space="preserve" xmlns="http://www.w3.org/2000/svg"><rect transform="rotate(-13.446)" x="-1.482" y="6.6346" width="32.753" height="32.753" rx="4" ry="4"/><path d="m25.861 13.975c-0.24501-0.02144-0.48899-0.03857-0.73198-0.05156 6.74e-4 -0.16452-0.0029-0.32802-0.0065-0.49154-0.0819-2.628-0.9035-4.5594-2.2094-4.9491-1.2568-0.3703-2.9018 0.72047-4.3458 2.7448-0.14351 0.19868-0.28082 0.40475-0.40973 0.60882-0.13957-0.08213-0.28336-0.16325-0.42612-0.24017-2.3178-1.2405-4.4048-1.4968-5.3922-0.55436-0.94824 0.90193-0.8229 2.8754 0.20594 5.1349 0.10245 0.22426 0.20816 0.44331 0.32325 0.66457-0.25084 0.13999-0.49548 0.28727-0.72231 0.43479-2.0581 1.3139-3.3741 2.9257-3.0707 4.1947 0.31345 1.311 2.3424 2.2164 4.8654 2.4572 0.20416 0.01781 0.40833 0.03565 0.61468 0.04406-0.0027 0.2672 0.0019 0.52818 0.01276 0.79656 0.11636 2.4376 0.90297 4.2042 2.1556 4.5755 1.2913 0.38426 3.0383-0.74412 4.5068-2.8144 0.11593-0.16542 0.23085-0.33505 0.34378-0.51309 0.22809 0.13649 0.46258 0.26257 0.69605 0.38444 2.1682 1.1164 4.0954 1.3175 5.0404 0.4208 0.97784-0.92677 0.87242-3.0028-0.1853-5.3086-0.08197-0.17586-0.16925-0.3549-0.26168-0.53714 0.12541-0.06999 0.24564-0.14313 0.36586-0.21631 2.2327-1.3823 3.6788-3.1007 3.3603-4.4327-0.30441-1.2732-2.2554-2.1128-4.7292-2.3521zm-6.5384-2.2083c1.2377-1.7352 2.5682-2.6175 3.3236-2.3938 0.8076 0.23782 1.4746 1.8197 1.5465 4.0903 0.0047 0.14991 0.0085 0.29561 0.0038 0.44332-0.9831 0.01293-1.9647 0.0877-2.9345 0.2307-0.73314-0.65098-1.5087-1.2563-2.3236-1.8033 0.12671-0.19466 0.25123-0.37991 0.38416-0.56717zm-2.6998 10.205c0.30171 0.31434 0.60762 0.62768 0.92413 0.9296-0.6726 0.08528-1.349 0.13596-2.0251 0.151 0.04022-0.6493 0.12165-1.3307 0.23788-2.0337 0.2817 0.32357 0.5666 0.64194 0.86311 0.95309zm-2.4818-4.7507c0.57296-0.27913 1.1898-0.5421 1.8378-0.78587-0.13933 0.402-0.27245 0.81143-0.39195 1.222-0.12051 0.4064-0.2348 0.82021-0.33548 1.2352-0.41443-0.56282-0.78382-1.1231-1.1104-1.6714zm1.8436 2.62c0.1387-0.64619 0.30562-1.2858 0.49136-1.921 0.18574-0.63523 0.40071-1.2597 0.6345-1.8797 0.61926-0.19688 1.2561-0.37585 1.9117-0.53258s1.3087-0.28618 1.9458-0.38969c0.48376 0.44406 0.95372 0.90476 1.4099 1.3821 0.45618 0.47731 0.89435 0.97227 1.3177 1.4796-0.1429 0.64721-0.30881 1.291-0.49775 1.9315-0.18575 0.63522-0.39652 1.2587-0.6251 1.8819-0.61506 0.19588-1.2614 0.37261-1.9211 0.53034-0.65973 0.15773-1.3035 0.28943-1.9302 0.39934-0.49318-0.44627-0.96835-0.91015-1.4255-1.3917-0.45718-0.48152-0.89115-0.97747-1.3113-1.49zm8.1033 0.33707c0.12589-0.42101 0.23818-0.84322 0.34525-1.2686 0.41462 0.545 0.79762 1.1065 1.1552 1.6917-0.61615 0.3028-1.2488 0.57398-1.8946 0.80835 0.14252-0.40723 0.27043-0.81984 0.39413-1.2315zm-0.16345-3.3593c-0.2859-0.32256-0.57601-0.64412-0.87251-0.95527-0.2913-0.30795-0.59-0.6097-0.89609-0.90521 0.69663-0.07772 1.3709-0.11897 2.0091-0.12498-0.04461 0.66812-0.12685 1.3275-0.24052 1.9855zm-5.4626-3.6916c0.55574 0.37355 1.0923 0.77834 1.6035 1.207-0.84106 0.16108-1.6773 0.361-2.5002 0.59776 0.28219-0.64052 0.58605-1.2462 0.89676-1.8047zm-5.4903-1.4105c0.6075-0.58059 2.3155-0.36702 4.3166 0.70048 0.12715 0.06733 0.25632 0.14307 0.38969 0.21779-0.48354 0.85746-0.90561 1.7491-1.2692 2.6623-0.92958 0.31109-1.8357 0.6832-2.7193 1.1121-0.10584-0.20126-0.20432-0.4087-0.30279-0.61617-0.88124-1.9394-0.98741-3.5354-0.4149-4.0765zm1.6187 11.323c-0.18854-0.0082-0.37388-0.02166-0.56024-0.0393-0.96235-0.06756-2.0857-0.26986-2.9608-0.67814-0.49474-0.19267-0.88898-0.57817-1.0904-1.0675-0.18385-0.76898 0.90892-2.0697 2.6653-3.196 0.21942-0.14131 0.44506-0.27522 0.67171-0.40492 0.50375 0.84353 1.0623 1.6562 1.6685 2.4264-0.19342 0.97468-0.32519 1.9657-0.39412 2.9595zm5.8842 2.9466c-0.54164 0.80028-1.2237 1.4964-2.0153 2.05-0.41319 0.33423-0.94603 0.48383-1.4703 0.40925-0.76056-0.22685-1.3925-1.6439-1.4915-3.7303-0.01008-0.24637-0.01587-0.49374-0.01231-0.73892 0.98949-0.02335 1.9723-0.11173 2.9517-0.27036 0.74254 0.65319 1.5317 1.2597 2.3518 1.8099-0.10332 0.16242-0.20765 0.32063-0.31398 0.47044zm0.78538-1.2672c-0.53912-0.35976-1.0903-0.76994-1.6379-1.221 0.4074-0.07968 0.82544-0.17065 1.2457-0.27112 0.43282-0.10348 0.85521-0.21336 1.2704-0.33484-0.259 0.6261-0.55344 1.234-0.87812 1.8269zm5.7935-0.05245c0.08472 0.5217-0.05286 1.061-0.37889 1.481-0.5757 0.54633-2.1208 0.38266-3.9742-0.56909-0.21265-0.10908-0.42832-0.23077-0.6492-0.35566 0.47314-0.86386 0.88579-1.7577 1.2348-2.6763 0.94318-0.3099 1.8661-0.68603 2.7603-1.1264 0.08321 0.16224 0.16221 0.32548 0.23602 0.48552 0.42291 0.85843 0.68257 1.7959 0.77114 2.7609zm-0.31522-4.7001c-0.1086 0.06597-0.21722 0.13195-0.33106 0.19465-0.51316-0.84573-1.0885-1.6544-1.7125-2.4247 0.19845-0.95367 0.32784-1.9175 0.39759-2.8893 0.23357 0.01079 0.45976 0.0278 0.67753 0.04681 2.1189 0.20416 3.7321 0.87574 3.915 1.6405 0.19691 0.82361-1.0154 2.2374-2.9465 3.432zm-6.4412 0.87364c1.0631-0.25417 1.7186-1.3215 1.4644-2.3847-0.25417-1.0631-1.3216-1.7186-2.3847-1.4644-1.0631 0.25418-1.7186 1.3216-1.4644 2.3847 0.25418 1.0631 1.3215 1.7186 2.3847 1.4644z" fill="#fff" stroke-width=".43847"/><path d="m3.1046 7.5794c-2.1781 0.52076-3.5128 2.6941-2.992 4.8723l5.7555 24.073c0.52076 2.1781 2.6946 3.5147 4.8727 2.9939l24.075-5.756c2.1781-0.52076 3.5123-2.696 2.9916-4.8742l-5.7555-24.073c-0.52076-2.1781-2.6941-3.5128-4.8723-2.992zm0.019983 0.083582 24.075-5.756c2.1324-0.50981 4.257 0.79653 4.7668 2.9289l5.7555 24.073c0.50981 2.1324-0.79417 4.2584-2.9265 4.7682l-24.075 5.756c-2.1324 0.50981-4.257-0.79653-4.7668-2.9289l-5.7555-24.073c-0.50981-2.1324 0.79417-4.2584 2.9265-4.7682z"/></svg>
