<?xml version="1.0" encoding="UTF-8"?>
<svg class="lucide lucide-notebook" fill="none" stroke="currentColor" stroke-linecap="round" stroke-linejoin="round" stroke-width="2" version="1.1" viewBox="0 0 24 24" xmlns="http://www.w3.org/2000/svg">
<path d="m4 0h16c2.216 0 4 1.784 4 4v16c0 2.216-1.784 4-4 4h-16c-2.216 0-4-1.784-4-4v-16c0-2.216 1.784-4 4-4z" fill="#fff" stroke="none"/>
<path d="m6.7708 21.047h3.146v-0.37286l-1.5963-0.17478h-0.32625l-1.2234 0.17478zm1.1302 0h0.55929v-3.0295l-0.12817-5.2783h-0.43112zm4.3578-8.2379 1.6196 0.15147h0.30295l1.2234-0.15147v-0.38451h-3.146zm1.1535 8.2845h0.85059v-8.669h-0.48938v3.3907l0.04661 3.4606 0.22139-0.08156-4.6491-6.7698h-2.5867v0.38451l0.97876 0.08156 0.38451 0.59425 0.034956 0.03496zm4.1452 0.15147c0.9438 0 1.4099-0.40782 2.0857-1.1535h0.40782l-0.17478-0.61755c-0.79233 0.85059-1.2001 1.0487-1.573 1.0487-0.57094 0-0.95546-0.34956-0.95546-1.0487 0-0.78068 0.43112-1.305 1.2701-1.6429 0.40782-0.15148 1.0836-0.32625 1.7128-0.48938v-0.30295c-0.6292 0.15148-1.4798 0.36121-2.0857 0.54764-1.7827 0.48938-2.3537 1.0836-2.3537 2.0973 0 0.97876 0.69911 1.5614 1.6662 1.5614zm3.2625-0.01165c0.65251 0 1.0603-0.24469 1.34-0.80398l-0.19808-0.16313c-0.20973 0.30295-0.3379 0.39616-0.52434 0.39616-0.25634 0-0.38451-0.17478-0.38451-0.71076v-3.0528c0-1.608-0.67581-2.2721-2.2255-2.2721-1.6429 0-2.61 0.65251-2.7498 1.6895 0.08156 0.34956 0.3379 0.53599 0.71077 0.53599 0.38451 0 0.72242-0.24469 0.75737-0.9205l0.12817-0.8972-0.73407 0.2913c0.55929-0.22139 0.95546-0.3146 1.3633-0.3146 0.8972 0 1.2118 0.36121 1.2118 1.5963v3.3557c0.09322 0.78068 0.50103 1.2701 1.305 1.2701z" fill="#000" stroke="none" aria-label="Na"/>
<path d="m4.5315 1.5315h14.937c1.662 0 3 1.338 3 3v14.937c0 1.662-1.338 3-3 3h-14.937c-1.662 0-3-1.338-3-3v-14.937c0-1.662 1.338-3 3-3z" stroke-width=".8"/>
</svg>
